<svg width="19" height="19" viewBox="0 0 19 19" fill="none" xmlns="http://www.w3.org/2000/svg">
<path d="M3.165 15.4586H3.26125L5.825 15.2224C6.18375 15.1874 6.51625 15.0299 6.77 14.7762L16.4475 5.09865C16.9025 4.64365 17.1562 4.0399 17.1562 3.40115C17.1562 2.7624 16.9025 2.15865 16.4475 1.70365L15.8262 1.0824C14.9162 0.172402 13.3325 0.172402 12.4225 1.0824L11.1887 2.31615L2.75375 10.7512C2.5 11.0049 2.3425 11.3374 2.31625 11.6962L2.08 14.2599C2.05375 14.5837 2.1675 14.8987 2.395 15.1349C2.605 15.3449 2.87625 15.4586 3.165 15.4586ZM14.1287 1.68615C14.4087 1.68615 14.6887 1.79115 14.8987 2.0099L15.52 2.63115C15.6222 2.73164 15.7034 2.85149 15.7588 2.98369C15.8143 3.11589 15.8428 3.2578 15.8428 3.40115C15.8428 3.5445 15.8143 3.68641 15.7588 3.81862C15.7034 3.95082 15.6222 4.07066 15.52 4.17115L14.75 4.94115L12.5887 2.7799L13.3587 2.0099C13.5687 1.7999 13.8487 1.68615 14.1287 1.68615ZM3.62 11.8187C3.62 11.7662 3.64625 11.7224 3.68125 11.6874L11.6525 3.7074L13.8137 5.86865L5.8425 13.8399C5.8425 13.8399 5.755 13.9012 5.71125 13.9012L3.41 14.1112L3.62 11.8099V11.8187ZM18.9062 18.2499C18.9062 18.6087 18.6087 18.9061 18.25 18.9061H0.75C0.39125 18.9061 0.09375 18.6087 0.09375 18.2499C0.09375 17.8911 0.39125 17.5936 0.75 17.5936H18.25C18.6087 17.5936 18.9062 17.8911 18.9062 18.2499Z" fill="#124A9C"/>
</svg>
