<svg width="13" height="13" viewBox="0 0 13 13" fill="none" xmlns="http://www.w3.org/2000/svg">
<path d="M5.14579 11.9166C4.82079 11.9166 4.60413 11.7 4.60413 11.375V1.62498C4.60413 1.29998 4.82079 1.08331 5.14579 1.08331C5.47079 1.08331 5.68746 1.29998 5.68746 1.62498V11.375C5.68746 11.7 5.47079 11.9166 5.14579 11.9166Z" fill="black"/>
<path d="M1.89579 5.41665C1.73329 5.41665 1.62496 5.36248 1.51663 5.25415C1.29996 5.03748 1.29996 4.71248 1.51663 4.49581L4.76663 1.24581C4.98329 1.02915 5.30829 1.02915 5.52496 1.24581C5.74163 1.46248 5.74163 1.78748 5.52496 2.00415L2.27496 5.25415C2.16663 5.36248 2.05829 5.41665 1.89579 5.41665ZM7.85413 11.9166C7.52913 11.9166 7.31246 11.7 7.31246 11.375V1.62498C7.31246 1.29998 7.52913 1.08331 7.85413 1.08331C8.17913 1.08331 8.39579 1.29998 8.39579 1.62498V11.375C8.39579 11.7 8.17913 11.9166 7.85413 11.9166Z" fill="black"/>
<path d="M7.85417 11.9166C7.69167 11.9166 7.58333 11.8625 7.475 11.7541C7.25833 11.5375 7.25833 11.2125 7.475 10.9958L10.725 7.74581C10.9417 7.52915 11.2667 7.52915 11.4833 7.74581C11.7 7.96248 11.7 8.28748 11.4833 8.50415L8.23333 11.7541C8.125 11.9166 8.01667 11.9166 7.85417 11.9166Z" fill="black"/>
</svg>
