<svg width="68" height="68" viewBox="0 0 68 68" fill="none" xmlns="http://www.w3.org/2000/svg">
<g clip-path="url(#clip0_74_2638)">
<path d="M67.4923 32.6712C66.8854 31.9941 52.286 16.0703 34.0001 16.0703C15.7142 16.0703 1.11489 31.9941 0.507802 32.6712C0.1808 33.0366 0 33.5097 0 34C0 34.4903 0.1808 34.9634 0.507802 35.3288C1.11489 36.0059 15.7144 51.9297 34.0001 51.9297C52.2857 51.9297 66.8852 36.0059 67.4923 35.3288C67.8193 34.9634 68 34.4903 68 34C68 33.5097 67.8193 33.0366 67.4923 32.6712ZM34.0001 47.9453C26.3114 47.9453 20.0547 41.6886 20.0547 34C20.0547 26.3114 26.3114 20.0547 34.0001 20.0547C41.6887 20.0547 47.9454 26.3114 47.9454 34C47.9454 41.6886 41.6887 47.9453 34.0001 47.9453Z" fill="black"/>
<path d="M35.9922 30.0156C35.9922 28.0115 36.9871 26.2484 38.5006 25.164C37.1425 24.4687 35.6276 24.0391 34 24.0391C28.5078 24.0391 24.0391 28.5078 24.0391 34C24.0391 39.4922 28.5078 43.9609 34 43.9609C38.9172 43.9609 42.9872 40.3705 43.7912 35.679C39.7795 36.9706 35.9922 33.9365 35.9922 30.0156Z" fill="black"/>
</g>
<defs>
<clipPath id="clip0_74_2638">
<rect width="68" height="68" fill="white"/>
</clipPath>
</defs>
</svg>
