<svg width="22" height="22" viewBox="0 0 22 22" fill="none" xmlns="http://www.w3.org/2000/svg">
<path fill-rule="evenodd" clip-rule="evenodd" d="M10.3125 5.95825C10.3125 5.77592 10.3849 5.60105 10.5139 5.47212C10.6428 5.34318 10.8177 5.27075 11 5.27075C11.1823 5.27075 11.3572 5.34318 11.4861 5.47212C11.6151 5.60105 11.6875 5.77592 11.6875 5.95825V16.0416C11.6875 16.2239 11.6151 16.3988 11.4861 16.5277C11.3572 16.6567 11.1823 16.7291 11 16.7291C10.8177 16.7291 10.6428 16.6567 10.5139 16.5277C10.3849 16.3988 10.3125 16.2239 10.3125 16.0416V5.95825Z" fill="#124A9C"/>
<path fill-rule="evenodd" clip-rule="evenodd" d="M5.95831 11.6875C5.77598 11.6875 5.60111 11.6151 5.47218 11.4861C5.34325 11.3572 5.27081 11.1823 5.27081 11C5.27081 10.8177 5.34325 10.6428 5.47218 10.5139C5.60111 10.3849 5.77598 10.3125 5.95831 10.3125H16.0416C16.224 10.3125 16.3989 10.3849 16.5278 10.5139C16.6567 10.6428 16.7291 10.8177 16.7291 11C16.7291 11.1823 16.6567 11.3572 16.5278 11.4861C16.3989 11.6151 16.224 11.6875 16.0416 11.6875H5.95831Z" fill="#124A9C"/>
<path fill-rule="evenodd" clip-rule="evenodd" d="M20.8541 5.49992V16.4999C20.8541 17.6547 20.3954 18.7622 19.5788 19.5788C18.7623 20.3953 17.6548 20.8541 16.5 20.8541H5.49998C4.34518 20.8541 3.23768 20.3953 2.42112 19.5788C1.60455 18.7622 1.14581 17.6547 1.14581 16.4999V5.49992C1.14581 4.34512 1.60455 3.23762 2.42112 2.42106C3.23768 1.60449 4.34518 1.14575 5.49998 1.14575H16.5C17.6548 1.14575 18.7623 1.60449 19.5788 2.42106C20.3954 3.23762 20.8541 4.34512 20.8541 5.49992ZM19.4791 5.49992C19.4795 5.10859 19.4027 4.72103 19.2531 4.35941C19.1035 3.9978 18.8841 3.66924 18.6074 3.39252C18.3307 3.11581 18.0021 2.89638 17.6405 2.74679C17.2789 2.5972 16.8913 2.52039 16.5 2.52075H5.49998C5.10865 2.52039 4.72109 2.5972 4.35947 2.74679C3.99786 2.89638 3.6693 3.11581 3.39258 3.39252C3.11587 3.66924 2.89644 3.9978 2.74685 4.35941C2.59726 4.72103 2.52045 5.10859 2.52081 5.49992V16.4999C2.52045 16.8913 2.59726 17.2788 2.74685 17.6404C2.89644 18.002 3.11587 18.3306 3.39258 18.6073C3.6693 18.884 3.99786 19.1035 4.35947 19.253C4.72109 19.4026 5.10865 19.4795 5.49998 19.4791H16.5C16.8913 19.4795 17.2789 19.4026 17.6405 19.253C18.0021 19.1035 18.3307 18.884 18.6074 18.6073C18.8841 18.3306 19.1035 18.002 19.2531 17.6404C19.4027 17.2788 19.4795 16.8913 19.4791 16.4999V5.49992Z" fill="#124A9C"/>
</svg>
