<svg width="131" height="131" viewBox="0 0 131 131" fill="none" xmlns="http://www.w3.org/2000/svg">
<g clip-path="url(#clip0_225_823)">
<path d="M108.907 108.921C132.887 84.9401 132.887 46.0599 108.907 22.0792C84.9261 -1.90141 46.0458 -1.90141 22.0652 22.0792C-1.91545 46.0599 -1.91545 84.9401 22.0652 108.921C46.0458 132.901 84.9261 132.901 108.907 108.921Z" fill="#46CC6B"/>
<path fill-rule="evenodd" clip-rule="evenodd" d="M126.022 75.9171C121.653 101.483 101.482 121.653 75.9171 126.022L42.8598 92.965C34.9494 86.4368 29.9077 76.5573 29.9077 65.5001C29.9077 45.8426 45.8426 29.9077 65.5 29.9077C76.5572 29.9077 86.4367 34.9497 92.965 42.8598L126.022 75.9171Z" fill="#179C5F"/>
<path fill-rule="evenodd" clip-rule="evenodd" d="M48.84 67.6135L58.9766 76.9221C60.4552 78.2833 62.7439 78.2109 64.1345 76.7771L82.2184 59.4628C83.6893 58.0484 83.7338 55.7083 82.3189 54.2366C80.904 52.7672 78.5652 52.7212 77.0943 54.1356L61.43 69.1333L53.8476 62.1706C52.3455 60.7884 50.0052 60.8854 48.6222 62.3891C47.2396 63.8912 47.3371 66.23 48.84 67.6135ZM65.5 29.9077C85.1574 29.9077 101.092 45.8426 101.092 65.5001C101.092 85.1575 85.1574 101.092 65.5 101.092C45.8426 101.092 29.9077 85.1575 29.9077 65.5001C29.9077 45.8426 45.8426 29.9077 65.5 29.9077Z" fill="white"/>
</g>
<defs>
<clipPath id="clip0_225_823">
<rect width="131" height="131" fill="white"/>
</clipPath>
</defs>
</svg>
