<svg width="17" height="17" viewBox="0 0 17 17" fill="none" xmlns="http://www.w3.org/2000/svg">
<path d="M15.625 15.625L12.1868 12.1868M12.1868 12.1868C12.7749 11.5987 13.2414 10.9005 13.5597 10.132C13.878 9.36362 14.0418 8.54004 14.0418 7.70831C14.0418 6.87659 13.878 6.053 13.5597 5.28459C13.2414 4.51617 12.7749 3.81797 12.1868 3.22986C11.5987 2.64174 10.9005 2.17521 10.1321 1.85693C9.36365 1.53864 8.54007 1.37482 7.70834 1.37482C6.87662 1.37482 6.05303 1.53864 5.28462 1.85693C4.5162 2.17521 3.81801 2.64174 3.22989 3.22986C2.04212 4.41762 1.37485 6.02857 1.37485 7.70831C1.37485 9.38806 2.04212 10.999 3.22989 12.1868C4.41765 13.3745 6.0286 14.0418 7.70834 14.0418C9.38809 14.0418 10.999 13.3745 12.1868 12.1868Z" stroke="white" stroke-width="1.5" stroke-linecap="round" stroke-linejoin="round"/>
</svg>
