<svg width="19" height="19" viewBox="0 0 19 19" fill="none" xmlns="http://www.w3.org/2000/svg">
<path d="M16.625 16.625L13.1868 13.1868M13.1868 13.1868C13.775 12.5987 14.2415 11.9005 14.5598 11.1321C14.878 10.3637 15.0419 9.5401 15.0419 8.70837C15.0419 7.87665 14.8781 7.05307 14.5598 6.28465C14.2415 5.51624 13.775 4.81804 13.1868 4.22992C12.5987 3.6418 11.9005 3.17527 11.1321 2.85699C10.3637 2.5387 9.5401 2.37488 8.70837 2.37488C7.87665 2.37488 7.05307 2.5387 6.28465 2.85699C5.51624 3.17527 4.81804 3.6418 4.22992 4.22992C3.04216 5.41768 2.37488 7.02863 2.37488 8.70837C2.37488 10.3881 3.04216 11.9991 4.22992 13.1868C5.41768 14.3746 7.02863 15.0419 8.70837 15.0419C10.3881 15.0419 11.9991 14.3746 13.1868 13.1868Z" stroke="#706E6E" stroke-width="1.5" stroke-linecap="round" stroke-linejoin="round"/>
</svg>
