<svg width="20" height="20" viewBox="0 0 20 20" fill="none" xmlns="http://www.w3.org/2000/svg">
<mask id="mask0_225_336" style="mask-type:luminance" maskUnits="userSpaceOnUse" x="0" y="0" width="20" height="20">
<path d="M0.5 0.5H19.5V19.5H0.5V0.5Z" fill="white"/>
</mask>
<g mask="url(#mask0_225_336)">
<path d="M10.0001 7.08072C8.38784 7.08072 7.08081 8.38771 7.08081 10C7.08081 11.6123 8.38784 12.9192 10.0001 12.9192C11.6124 12.9192 12.9194 11.6123 12.9194 10C12.9194 8.38771 11.6124 7.08072 10.0001 7.08072ZM18.1939 7.91679L17.4035 8.56747C16.5019 9.30969 16.5019 10.6903 17.4035 11.4325L18.1939 12.0832C18.474 12.3138 18.5463 12.7131 18.365 13.0273L16.8043 15.7305C16.6228 16.0447 16.2409 16.1817 15.9011 16.0544L14.9424 15.6953C13.8488 15.2856 12.6532 15.9759 12.4612 17.1278L12.2929 18.1376C12.2333 18.4955 11.9236 18.7578 11.5608 18.7578H8.43935C8.07657 18.7578 7.76693 18.4955 7.70729 18.1376L7.53897 17.1278C7.347 15.9759 6.15137 15.2856 5.0578 15.6953L4.09911 16.0544C3.75934 16.1817 3.37737 16.0447 3.19594 15.7305L1.63524 13.0273C1.45385 12.7131 1.52617 12.3138 1.80627 12.0832L2.5967 11.4325C3.49828 10.6903 3.49828 9.30969 2.5967 8.56747L1.80627 7.91679C1.52617 7.68619 1.45385 7.2869 1.63524 6.97269L3.19594 4.26946C3.37737 3.95525 3.75934 3.81825 4.09911 3.94553L5.0578 4.30468C6.15137 4.71436 7.347 4.02409 7.53897 2.87218L7.70729 1.86232C7.76693 1.50448 8.07657 1.24219 8.43935 1.24219H11.5608C11.9236 1.24219 12.2333 1.50448 12.2929 1.86232L12.4612 2.87218C12.6532 4.02409 13.8488 4.71436 14.9424 4.30468L15.9011 3.94553C16.2409 3.81825 16.6228 3.95525 16.8043 4.26946L18.365 6.97269C18.5463 7.2869 18.474 7.68619 18.1939 7.91679Z" stroke="white" stroke-width="2" stroke-miterlimit="10" stroke-linecap="round" stroke-linejoin="round"/>
</g>
</svg>
